<svg xmlns="http://www.w3.org/2000/svg" version="1.1" xmlns:xlink="http://www.w3.org/1999/xlink" xmlns:svgjs="http://svgjs.dev/svgjs" width="1000" height="146" viewBox="0 0 1000 146"><g transform="matrix(1,0,0,1,-0.6060559660520539,-0.5769942165959918)"><svg viewBox="0 0 396 58" data-background-color="#85586f" preserveAspectRatio="xMidYMid meet" height="146" width="1000" xmlns="http://www.w3.org/2000/svg" xmlns:xlink="http://www.w3.org/1999/xlink"><g id="tight-bounds" transform="matrix(1,0,0,1,0.239998162556617,0.2292168805655308)"><svg viewBox="0 0 395.52 57.541563370014835" height="57.541563370014835" width="395.52"><g><svg viewBox="0 0 510.62798055135056 74.28785472643165" height="57.541563370014835" width="395.52"><g transform="matrix(1,0,0,1,115.10798055135058,10.266990052639976)"><svg viewBox="0 0 395.52 53.753874621151695" height="53.753874621151695" width="395.52"><g><svg viewBox="0 0 395.52 53.753874621151695" height="53.753874621151695" width="395.52"><g><svg viewBox="0 0 395.52 53.753874621151695" height="53.753874621151695" width="395.52"><g transform="matrix(1,0,0,1,0,0)"><svg width="395.52" viewBox="1.5099999904632568 -37.9900016784668 306.0899963378906 41.60000228881836" height="53.753874621151695" data-palette-color="#dfd3c3"><path d="M34.52-11.57L34.52-11.57 34.47-3.96Q32.23-3.52 30.03-3.13 27.83-2.73 25.59-2.44L25.59-2.44Q23.24-2.15 20.9-1.9 18.55-1.66 16.21-1.66L16.21-1.66Q15.53-1.66 14.21-1.71 12.89-1.76 11.47-1.9 10.06-2.05 8.79-2.27 7.52-2.49 6.93-2.83L6.93-2.83Q6.4-3.17 5.91-3.64 5.42-4.1 5.03-4.59L5.03-4.59Q4-5.86 3.32-7.37 2.64-8.89 2.25-10.5 1.86-12.11 1.68-13.77 1.51-15.43 1.51-17.04L1.51-17.04Q1.51-18.99 1.73-21.09 1.95-23.19 2.44-25.24 2.93-27.29 3.74-29.2 4.54-31.1 5.71-32.71L5.71-32.71Q6.05-33.15 6.59-33.79 7.13-34.42 7.67-34.72L7.67-34.72Q8.98-35.45 10.62-35.94 12.26-36.43 14.01-36.69 15.77-36.96 17.5-37.08 19.24-37.21 20.7-37.21L20.7-37.21Q23.49-37.21 26.27-36.89 29.05-36.57 31.69-35.79L31.69-35.79Q31.59-34.47 31.54-33.13 31.49-31.79 31.49-30.47L31.49-30.47Q31.49-27.29 31.64-24.07L31.64-24.07Q29.44-24.9 27.05-25.27 24.66-25.63 22.31-25.63L22.31-25.63Q21.83-25.63 20.9-25.56 19.97-25.49 18.8-25.37 17.63-25.24 16.38-25.05 15.14-24.85 14.06-24.56 12.99-24.27 12.18-23.88 11.38-23.49 11.13-23.05L11.13-23.05Q10.94-22.66 10.82-21.95 10.69-21.24 10.62-20.46 10.55-19.68 10.52-18.95 10.5-18.21 10.5-17.77L10.5-17.77Q10.5-17.33 10.6-16.02 10.69-14.7 10.84-13.21 10.99-11.72 11.21-10.5 11.43-9.28 11.67-9.08L11.67-9.08Q11.91-8.94 12.48-8.91 13.04-8.89 13.23-8.89L13.23-8.89Q15.63-8.89 18.36-9.13 21.09-9.38 23.9-9.79 26.71-10.21 29.44-10.67 32.18-11.13 34.52-11.57ZM71.43-2.49L71.43-2.49 63.18-2.15 62.6-7.08Q61.67-5.81 60.37-4.93 59.08-4.05 57.59-3.52 56.1-2.98 54.51-2.76 52.93-2.54 51.41-2.54L51.41-2.54Q50.24-2.54 48.51-2.73 46.77-2.93 44.99-3.3 43.21-3.66 41.7-4.25 40.18-4.83 39.5-5.62L39.5-5.62Q38.96-6.2 38.69-7.5 38.43-8.79 38.33-10.25 38.23-11.72 38.23-13.09 38.23-14.45 38.23-15.28L38.23-15.28Q38.23-18.95 38.52-22.51 38.82-26.07 39.35-29.59L39.35-29.59Q40.72-29.74 42.28-29.74L42.28-29.74Q43.55-29.74 44.82-29.57 46.09-29.39 47.36-29.15L47.36-29.15Q47.36-28.91 47.41-27.73 47.46-26.56 47.53-24.95 47.6-23.34 47.7-21.51 47.8-19.68 47.92-18.12 48.04-16.55 48.22-15.45 48.39-14.36 48.58-14.26L48.58-14.26Q49.31-13.82 50.19-13.77 51.07-13.72 51.9-13.72L51.9-13.72Q52.49-13.72 53.73-13.79 54.98-13.87 56.3-14.04 57.61-14.21 58.74-14.48 59.86-14.75 60.25-15.14L60.25-15.14Q60.4-15.28 60.47-16.06 60.54-16.85 60.57-17.77 60.59-18.7 60.62-19.51 60.64-20.31 60.64-20.46L60.64-20.46Q60.64-22.66 60.54-24.8 60.45-26.95 60.35-29.15L60.35-29.15 69.82-29.59Q70.11-26.17 70.36-22.78 70.6-19.38 70.99-15.97L70.99-15.97Q71.14-14.84 71.16-13.67 71.19-12.5 71.24-11.33L71.24-11.33Q71.34-9.13 71.36-6.93 71.38-4.74 71.43-2.49ZM111.27-16.65L111.27-16.65Q111.27-15.97 111.25-15.16 111.23-14.36 111.1-13.53 110.98-12.7 110.76-11.94 110.54-11.18 110.15-10.6L110.15-10.6Q109.32-9.38 108.59-8.52 107.86-7.67 107-7.1 106.15-6.54 105.07-6.2 104-5.86 102.53-5.66L102.53-5.66Q100.34-5.32 98.19-5.05 96.04-4.79 93.84-4.79L93.84-4.79Q92.87-4.79 91.84-4.88 90.82-4.98 89.94-5.52L89.94-5.52Q89.45-5.76 88.89-6.18 88.33-6.59 87.79-7.06 87.25-7.52 86.74-7.98 86.23-8.45 85.83-8.79L85.83-8.79 85.54 3.47Q84.17 3.56 82.81 3.54 81.44 3.52 80.02 3.52L80.02 3.52Q79.19 3.52 78.44 3.54 77.68 3.56 76.85 3.61L76.85 3.61Q77.05-0.59 77.22-4.76 77.39-8.94 77.39-13.09L77.39-13.09 77.39-13.67Q77.39-18.31 77.14-22.9 76.9-27.49 76.7-32.13L76.7-32.13Q79.15-32.32 81.54-32.47 83.93-32.62 86.37-32.81L86.37-32.81 86.71-30.22Q90.08-30.62 93.48-30.88 96.87-31.15 100.29-31.15L100.29-31.15Q100.73-31.15 101.24-31.18 101.75-31.2 102.19-31.1L102.19-31.1Q103.36-30.86 104.58-30.49 105.81-30.13 106.88-29.54 107.95-28.96 108.78-28.05 109.61-27.15 110.05-25.88L110.05-25.88Q110.35-24.9 110.59-23.73 110.83-22.56 110.98-21.31 111.13-20.07 111.2-18.87 111.27-17.68 111.27-16.65ZM101.66-17.53L101.66-17.53Q101.66-18.12 101.56-18.8 101.46-19.48 101.07-19.92L101.07-19.92Q100.09-21.04 98.63-21.66 97.16-22.27 95.75-22.27L95.75-22.27Q94.58-22.27 93.21-22.05 91.84-21.83 90.47-21.46 89.11-21.09 87.79-20.63 86.47-20.17 85.4-19.73L85.4-19.73 85.83-13.18Q87.64-12.65 89.72-12.21 91.79-11.77 93.65-11.77L93.65-11.77Q94.14-11.77 95.16-11.74 96.19-11.72 97.29-11.79 98.38-11.87 99.34-12.01 100.29-12.16 100.58-12.55L100.58-12.55Q100.83-12.84 101.02-13.5 101.22-14.16 101.36-14.92 101.51-15.67 101.58-16.38 101.66-17.09 101.66-17.53ZM177.33-20.85L177.33-20.85Q177.33-20.21 177.33-19.6 177.33-18.99 177.28-18.41L177.28-18.41Q177.24-17.92 177.16-16.7 177.09-15.48 176.97-13.89 176.85-12.3 176.67-10.55 176.5-8.79 176.28-7.3 176.06-5.81 175.82-4.74 175.58-3.66 175.33-3.42L175.33-3.42Q173.87-1.95 171.84-1.25 169.81-0.54 167.62-0.29 165.42-0.05 163.22-0.1 161.03-0.15 159.12-0.15L159.12-0.15Q158.49-0.15 156.97-0.17 155.46-0.2 153.53-0.24 151.6-0.29 149.5-0.42 147.4-0.54 145.57-0.76 143.74-0.98 142.4-1.29 141.05-1.61 140.71-2.1L140.71-2.1Q140.32-2.64 140.03-3.27 139.74-3.91 139.49-4.49L139.49-4.49Q138.86-6.1 138.32-7.93 137.78-9.77 137.42-11.69 137.05-13.62 136.83-15.53 136.61-17.43 136.61-19.14L136.61-19.14Q136.61-20.07 136.76-21.56 136.9-23.05 137.15-24.78 137.39-26.51 137.73-28.32 138.08-30.13 138.49-31.69 138.91-33.25 139.39-34.4 139.88-35.55 140.47-35.94L140.47-35.94Q140.96-36.28 142.28-36.57 143.59-36.87 145.35-37.08 147.11-37.3 149.11-37.48 151.11-37.65 152.92-37.77 154.73-37.89 156.19-37.94 157.66-37.99 158.34-37.99L158.34-37.99Q159.27-37.99 160.85-37.89 162.44-37.79 164.3-37.57 166.15-37.35 168.06-37.04 169.96-36.72 171.6-36.28 173.23-35.84 174.4-35.3 175.58-34.77 175.87-34.13L175.87-34.13Q176.11-33.59 176.33-32.59 176.55-31.59 176.7-30.32 176.85-29.05 176.97-27.64 177.09-26.22 177.16-24.93 177.24-23.63 177.28-22.56 177.33-21.48 177.33-20.85ZM168.59-19.24L168.59-19.24Q168.59-20.21 168.5-21.31 168.4-22.41 167.86-23.24L167.86-23.24Q167.47-23.83 165.98-24.17 164.49-24.51 162.71-24.66 160.93-24.8 159.27-24.83 157.61-24.85 156.92-24.85L156.92-24.85Q156.39-24.85 155.04-24.76 153.7-24.66 152.21-24.44 150.72-24.22 149.45-23.9 148.18-23.58 147.89-23.14L147.89-23.14Q147.6-22.8 147.43-21.85 147.26-20.9 147.13-19.8 147.01-18.7 146.96-17.7 146.91-16.7 146.91-16.26L146.91-16.26Q146.91-15.87 146.94-15.09 146.96-14.31 147.06-13.48 147.16-12.65 147.28-11.91 147.4-11.18 147.65-10.84L147.65-10.84Q147.79-10.6 148.53-10.4 149.26-10.21 150.31-10.03 151.36-9.86 152.53-9.77 153.7-9.67 154.8-9.59 155.9-9.52 156.75-9.5 157.61-9.47 157.95-9.47L157.95-9.47Q158.53-9.47 159.98-9.57 161.42-9.67 163-9.89 164.59-10.11 165.93-10.42 167.28-10.74 167.67-11.18L167.67-11.18Q167.96-11.52 168.15-12.62 168.35-13.72 168.45-15.01 168.54-16.31 168.57-17.5 168.59-18.7 168.59-19.24ZM227.57-16.85L227.57-16.85Q227.57-15.67 227.48-14.01 227.38-12.35 227.13-10.6 226.89-8.84 226.47-7.23 226.06-5.62 225.42-4.54L225.42-4.54Q224.35-2.69 222.76-1.64 221.18-0.59 219.35-0.07 217.51 0.44 215.51 0.59 213.51 0.73 211.56 0.73L211.56 0.73Q209.9 0.73 208.65 0.63 207.41 0.54 206.26 0.29 205.11 0.05 203.92-0.44 202.72-0.93 201.25-1.66L201.25-1.66Q201.06-3.96 201.03-6.23 201.01-8.5 200.91-10.84L200.91-10.84Q202.43-10.6 203.65-10.35 204.87-10.11 206.04-9.91 207.21-9.72 208.43-9.59 209.65-9.47 211.22-9.47L211.22-9.47Q212.19-9.47 213.39-9.59 214.58-9.72 215.37-10.35L215.37-10.35Q215.85-10.74 216.15-11.62 216.44-12.5 216.56-13.53 216.68-14.55 216.71-15.53 216.73-16.5 216.73-17.09L216.73-17.09Q216.73-20.75 216.34-24.41 215.95-28.08 215.37-31.69L215.37-31.69Q215.12-33.11 214.93-34.52 214.73-35.94 214.29-37.26L214.29-37.26Q214.83-37.21 215.39-37.21 215.95-37.21 216.59-37.21L216.59-37.21Q219.03-37.21 221.42-37.33 223.81-37.45 226.25-37.79L226.25-37.79Q226.79-33.25 227.01-28.83 227.23-24.41 227.48-19.87L227.48-19.87Q227.52-19.09 227.55-18.36 227.57-17.63 227.57-16.85ZM269.37-19.34L269.37-19.34Q269.37-18.95 269.37-18.58 269.37-18.21 269.32-17.82L269.32-17.82Q269.27-17.14 269.07-15.58 268.88-14.01 268.54-12.33 268.2-10.64 267.71-9.23 267.22-7.81 266.63-7.42L266.63-7.42Q266.34-7.23 264.66-7.08 262.97-6.93 260.55-6.79 258.14-6.64 255.3-6.54 252.47-6.45 249.91-6.37 247.35-6.3 245.42-6.25 243.49-6.2 242.85-6.2L242.85-6.2Q242.56-6.2 241.85-6.2 241.14-6.2 240.36-6.23 239.58-6.25 238.9-6.3 238.21-6.35 237.92-6.45L237.92-6.45Q237.24-6.69 236.55-7.25 235.87-7.81 235.29-8.52 234.7-9.23 234.24-9.99 233.77-10.74 233.58-11.43L233.58-11.43Q233.43-11.96 233.33-13.06 233.23-14.16 233.19-15.36 233.14-16.55 233.11-17.68 233.09-18.8 233.09-19.38L233.09-19.38Q233.09-20.31 233.14-21.95 233.19-23.58 233.43-25.29 233.67-27 234.14-28.49 234.6-29.98 235.48-30.57L235.48-30.57Q235.87-30.81 236.95-31.01 238.02-31.2 239.48-31.35 240.95-31.49 242.61-31.57 244.27-31.64 245.86-31.67 247.44-31.69 248.81-31.69 250.18-31.69 251.01-31.64L251.01-31.64Q251.74-31.59 253.11-31.57 254.47-31.54 256.16-31.49 257.84-31.45 259.65-31.32 261.46-31.2 263.02-31.01 264.58-30.81 265.78-30.49 266.97-30.18 267.37-29.74L267.37-29.74Q268-29.05 268.39-27.69 268.78-26.32 269-24.78 269.22-23.24 269.29-21.75 269.37-20.26 269.37-19.34ZM259.02-18.31L259.02-18.31Q259.02-18.9 258.97-19.68 258.92-20.46 258.82-21.26 258.72-22.07 258.53-22.83 258.33-23.58 258.04-24.07L258.04-24.07Q257.65-24.71 256.53-25.05 255.4-25.39 254.06-25.56 252.72-25.73 251.42-25.78 250.13-25.83 249.49-25.83L249.49-25.83Q249.15-25.83 248.27-25.81 247.39-25.78 246.44-25.73 245.49-25.68 244.66-25.56 243.83-25.44 243.59-25.29L243.59-25.29Q243.15-25 242.9-24.39 242.66-23.78 242.54-23.05 242.41-22.31 242.39-21.61 242.37-20.9 242.37-20.46L242.37-20.46Q242.37-20.02 242.44-18.87 242.51-17.72 242.63-16.43 242.76-15.14 242.95-14.06 243.15-12.99 243.44-12.7L243.44-12.7Q243.78-12.3 244.73-12.06 245.69-11.82 246.78-11.65 247.88-11.47 248.91-11.4 249.93-11.33 250.37-11.33L250.37-11.33Q251.15-11.33 252.23-11.38 253.3-11.43 254.4-11.62 255.5-11.82 256.48-12.16 257.45-12.5 258.04-13.09L258.04-13.09Q258.38-13.43 258.58-14.11 258.77-14.79 258.87-15.58 258.97-16.36 258.99-17.11 259.02-17.87 259.02-18.31ZM307.6-18.12L307.6-18.12Q301.2-17.77 294.85-17.55 288.51-17.33 282.11-17.09L282.11-17.09Q282.06-16.89 282.06-16.7 282.06-16.5 282.06-16.31L282.06-16.31Q282.06-14.65 282.82-13.77 283.57-12.89 284.7-12.52 285.82-12.16 287.19-12.11 288.55-12.06 289.73-12.06L289.73-12.06Q293-12.06 296.27-12.28 299.54-12.5 302.86-12.74L302.86-12.74 303.25-4.98Q300.03-4.83 296.83-4.74 293.63-4.64 290.41-4.64L290.41-4.64Q289.73-4.64 287.9-4.66 286.06-4.69 283.99-4.81 281.91-4.93 280.11-5.13 278.3-5.32 277.71-5.66L277.71-5.66Q276.2-6.54 275.35-7.91 274.49-9.28 274.03-10.89 273.56-12.5 273.39-14.18 273.22-15.87 273.17-17.43L273.17-17.43Q273.12-17.68 273.15-17.94 273.17-18.21 273.17-18.46L273.17-18.46Q273.17-21.04 273.73-23.27 274.3-25.49 275.81-27.59L275.81-27.59Q276.84-29.05 278.84-30.03 280.84-31.01 283.18-31.57 285.53-32.13 287.87-32.35 290.21-32.57 291.92-32.57L291.92-32.57Q293.44-32.57 295.63-32.3 297.83-32.03 300-31.4 302.18-30.76 303.94-29.76 305.69-28.76 306.33-27.29L306.33-27.29Q306.43-27 306.55-26.29 306.67-25.59 306.82-24.68 306.96-23.78 307.08-22.75 307.21-21.73 307.3-20.8 307.4-19.87 307.48-19.14 307.55-18.41 307.6-18.12ZM284.65-21.14L300.96-21.68Q300.66-23.83 299.86-25.07 299.05-26.32 297.86-26.93 296.66-27.54 295.12-27.71 293.58-27.88 291.83-27.88L291.83-27.88Q291.24-27.88 290.36-27.86 289.48-27.83 288.6-27.71 287.72-27.59 286.94-27.34 286.16-27.1 285.72-26.66L285.72-26.66Q285.38-26.37 285.16-25.85 284.94-25.34 284.79-24.76 284.65-24.17 284.57-23.61 284.5-23.05 284.5-22.66L284.5-22.66Q284.5-21.88 284.65-21.14L284.65-21.14Z" opacity="1" transform="matrix(1,0,0,1,0,0)" fill="#dfd3c3" class="undefined-text-0" data-fill-palette-color="primary" id="text-0"></path></svg></g></svg></g></svg></g></svg></g><g><svg viewBox="0 0 102.41798084628758 74.28785472643165" height="74.28785472643165" width="102.41798084628758"><g><svg xmlns="http://www.w3.org/2000/svg" xmlns:xlink="http://www.w3.org/1999/xlink" version="1.1" x="0" y="0" viewBox="0 13.732999801635742 100 72.53399658203125" enable-background="new 0 0 100 100" xml:space="preserve" height="74.28785472643165" width="102.41798084628758" class="icon-icon-0" data-fill-palette-color="accent" id="icon-0"><g fill="#dfd3c3" data-fill-palette-color="accent"><path fill-rule="evenodd" clip-rule="evenodd" d="M66.096 58.147c1.701-4.745 3.402-10.851 3.402-18.648s2.373-15.596 11.182-15.596c6.438 0 8.479 3.733 10.17 7.467 1.012 3.034 1.353 6.087 1.353 8.129C92.542 48.657 83.053 61.2 66.096 58.147M49.489 86.267H20C9.508 77.457 0 60.851 0 45.604V13.733h69.498v7.798c4.064-3.053 5.757-4.064 11.513-4.064 5.775 0 18.989 5.425 18.989 21.683 0 16.276-15.937 25.435-28.479 25.435-0.672 0-3.384-0.35-4.064-0.35-0.662 0-3.053 0.681-4.396 4.083C61.352 71.37 55.255 81.19 49.489 86.267" fill="#dfd3c3" data-fill-palette-color="accent"></path></g></svg></g></svg></g></svg></g><defs></defs></svg><rect width="395.52" height="57.541563370014835" fill="none" stroke="none" visibility="hidden"></rect></g></svg></g></svg>